<svg width="53" height="38" viewBox="0 0 53 38" fill="none" xmlns="http://www.w3.org/2000/svg">
<path d="M51.2471 6.1872C50.6493 3.93977 48.8809 2.16681 46.6309 1.55917C42.5626 0.46875 26.2396 0.46875 26.2396 0.46875C26.2396 0.46875 9.92501 0.46875 5.84843 1.55917C3.60672 2.15848 1.83826 3.93145 1.23217 6.1872C0.144531 10.2659 0.144531 18.7811 0.144531 18.7811C0.144531 18.7811 0.144531 27.2964 1.23217 31.375C1.82996 33.6224 3.59842 35.3954 5.84843 36.0031C9.92501 37.0935 26.2396 37.0935 26.2396 37.0935C26.2396 37.0935 42.5626 37.0935 46.6309 36.0031C48.8726 35.4037 50.641 33.6308 51.2471 31.375C52.3348 27.2964 52.3348 18.7811 52.3348 18.7811C52.3348 18.7811 52.3348 10.2659 51.2471 6.1872Z" fill="#FF3000"/>
<path d="M21.0256 26.6305L34.5838 18.7811L21.0256 10.9318V26.6305Z" fill="white"/>
</svg>
