<svg width="46" height="46" viewBox="0 0 46 46" fill="none" xmlns="http://www.w3.org/2000/svg">
<path d="M22.56 10.3618C25.9133 10.3618 28.6702 12.9968 28.8102 16.3358H28.7775C28.7814 16.4328 28.7628 16.5295 28.723 16.6182H28.9184C30.4412 16.6182 32.0358 17.6736 32.6752 20.2216L32.7447 20.5223L33.7068 28.2735C34.3991 33.2174 31.6943 35.2964 28.0046 35.3845L27.7572 35.3874H17.3841C13.6344 35.3874 10.7449 34.021 11.3802 28.6099L11.4235 28.2735L12.3967 20.5223C12.8765 17.7783 14.4875 16.6961 16.0398 16.6222L16.2119 16.6182H16.3097C16.2932 16.5248 16.2932 16.4292 16.3097 16.3358C16.4497 12.9968 19.2066 10.3618 22.56 10.3618ZM18.9213 20.784C18.3105 20.784 17.8154 21.2936 17.8154 21.9223C17.8154 22.5509 18.3105 23.0605 18.9213 23.0605C19.5321 23.0605 20.0272 22.5509 20.0272 21.9223L20.0186 21.7795C19.9503 21.2183 19.4851 20.784 18.9213 20.784ZM26.1647 20.784C25.554 20.784 25.0589 21.2936 25.0589 21.9223C25.0589 22.5509 25.554 23.0605 26.1647 23.0605C26.7755 23.0605 27.2706 22.5509 27.2706 21.9223C27.2706 21.2936 26.7755 20.784 26.1647 20.784ZM22.5109 11.9914C20.1033 11.9914 18.1516 13.9364 18.1516 16.3358C18.1681 16.4292 18.1681 16.5248 18.1516 16.6182H26.9248C26.8899 16.528 26.8715 16.4324 26.8703 16.3358C26.8703 13.9364 24.9185 11.9914 22.5109 11.9914Z" fill="#EFF2F4"/>
</svg>
