<svg width="46" height="46" viewBox="0 0 46 46" fill="none" xmlns="http://www.w3.org/2000/svg">
<path d="M17.4484 24.6521C19.2127 24.6521 20.6266 26.0798 20.6266 27.8566V32.1222C20.6266 33.8865 19.2127 35.3255 17.4484 35.3255H13.219C11.4672 35.3255 10.0408 33.8865 10.0408 32.1222V27.8566C10.0408 26.0798 11.4672 24.6521 13.219 24.6521H17.4484ZM31.8883 24.6521C33.6401 24.6521 35.0665 26.0798 35.0665 27.8566V32.1222C35.0665 33.8865 33.6401 35.3255 31.8883 35.3255H27.6589C25.8946 35.3255 24.4807 33.8865 24.4807 32.1222V27.8566C24.4807 26.0798 25.8946 24.6521 27.6589 24.6521H31.8883ZM17.4484 10.3002C19.2127 10.3002 20.6266 11.7392 20.6266 13.5048V17.7704C20.6266 19.5472 19.2127 20.9737 17.4484 20.9737H13.219C11.4672 20.9737 10.0408 19.5472 10.0408 17.7704V13.5048C10.0408 11.7392 11.4672 10.3002 13.219 10.3002H17.4484ZM31.8883 10.3002C33.6401 10.3002 35.0665 11.7392 35.0665 13.5048V17.7704C35.0665 19.5472 33.6401 20.9737 31.8883 20.9737H27.6589C25.8946 20.9737 24.4807 19.5472 24.4807 17.7704V13.5048C24.4807 11.7392 25.8946 10.3002 27.6589 10.3002H31.8883Z" fill="#EFF2F4"/>
</svg>
