<svg width="46" height="26" viewBox="0 0 26 26" fill="none" xmlns="http://www.w3.org/2000/svg">
<path d="M12.5789 0.238693C19.6861 0.238693 25.0667 6.0659 25.0667 12.7327C25.0667 20.4647 18.7602 25.2643 12.5538 25.2643C10.5017 25.2643 8.2244 24.7129 6.39753 23.6352C5.75937 23.2467 5.22132 22.9585 4.53312 23.1841L2.00553 23.936C1.36737 24.1365 0.791785 23.6352 0.979477 22.9585L1.81784 20.1514C1.95548 19.763 1.93045 19.3494 1.73025 19.0236C0.654144 17.0436 0.0410156 14.8756 0.0410156 12.7703C0.0410156 6.17868 5.30891 0.238693 12.5789 0.238693ZM18.2972 11.1788C17.4088 11.1788 16.6956 11.8931 16.6956 12.7828C16.6956 13.6601 17.4088 14.3869 18.2972 14.3869C19.1856 14.3869 19.8989 13.6601 19.8989 12.7828C19.8989 11.8931 19.1856 11.1788 18.2972 11.1788ZM12.5288 11.1788C11.6529 11.1663 10.9272 11.8931 10.9272 12.7703C10.9272 13.6601 11.6404 14.3744 12.5288 14.3869C13.4172 14.3869 14.1305 13.6601 14.1305 12.7828C14.1305 11.8931 13.4172 11.1788 12.5288 11.1788ZM6.7604 11.1788C5.87199 11.1788 5.15876 11.8931 5.15876 12.7828C5.15876 13.6601 5.8845 14.3869 6.7604 14.3869C7.64881 14.3744 8.36204 13.6601 8.36204 12.7828C8.36204 11.8931 7.64881 11.1788 6.7604 11.1788Z" fill="#EFF2F4"/>
</svg>
