<svg width="46" height="47" viewBox="0 0 46 47" fill="none" xmlns="http://www.w3.org/2000/svg">
    <path d="M18.9685 34.4833V30.6572C18.9685 29.6806 19.766 28.8888 20.7499 28.8888H24.3463C24.8187 28.8888 25.2718 29.0751 25.6059 29.4068C25.94 29.7384 26.1277 30.1882 26.1277 30.6572V34.4833C26.1247 34.8894 26.2851 35.2798 26.5733 35.568C26.8614 35.8561 27.2536 36.0182 27.6626 36.0182H30.1162C31.2622 36.0212 32.3622 35.5713 33.1735 34.7679C33.9849 33.9646 34.4409 32.8737 34.4409 31.7361V20.8362C34.4409 19.9173 34.0305 19.0456 33.3205 18.4561L24.9737 11.8383C23.5218 10.6779 21.4414 10.7154 20.0328 11.9273L11.8765 18.4561C11.1329 19.0282 10.6885 19.9025 10.6665 20.8362V31.725C10.6665 34.0961 12.6027 36.0182 14.9912 36.0182H17.3888C18.2383 36.0182 18.9287 35.3378 18.9349 34.4944L18.9685 34.4833Z" fill="#EFF2F4"/>
</svg>