<svg width="46" height="46" viewBox="0 0 46 46" fill="none" xmlns="http://www.w3.org/2000/svg">
<path d="M23.4511 10.485C24.3974 10.485 25.2542 11.0105 25.7273 11.7863C25.9575 12.1617 26.1109 12.6247 26.0726 13.1127C26.047 13.4881 26.1621 13.8634 26.3667 14.2138C27.0189 15.2774 28.4639 15.6778 29.5892 15.0772C30.8551 14.3514 32.4536 14.7894 33.1825 16.0282L34.0392 17.5047C34.7809 18.7434 34.3717 20.3326 33.093 21.0458C32.006 21.684 31.6224 23.0979 32.2746 24.174C32.4792 24.5119 32.7093 24.7997 33.0674 24.9748C33.515 25.2126 33.8602 25.588 34.1032 25.9633C34.5763 26.7391 34.538 27.6901 34.0776 28.5285L33.1825 30.03C32.7093 30.8308 31.827 31.3313 30.9191 31.3313C30.4715 31.3313 29.9728 31.2062 29.5636 30.956C29.2311 30.7432 28.8475 30.6682 28.4383 30.6682C27.1723 30.6682 26.1109 31.7067 26.0726 32.9455C26.0726 34.3845 24.8961 35.5106 23.4256 35.5106H21.6865C20.2031 35.5106 19.0266 34.3845 19.0266 32.9455C19.0011 31.7067 17.9397 30.6682 16.6737 30.6682C16.2517 30.6682 15.8681 30.7432 15.5484 30.956C15.1392 31.2062 14.6277 31.3313 14.1929 31.3313C13.2722 31.3313 12.3899 30.8308 11.9167 30.03L11.0344 28.5285C10.5613 27.7151 10.5357 26.7391 11.0088 25.9633C11.2134 25.588 11.5971 25.2126 12.0318 24.9748C12.3899 24.7997 12.6201 24.5119 12.8375 24.174C13.4768 23.0979 13.0932 21.684 12.0063 21.0458C10.7403 20.3326 10.3311 18.7434 11.06 17.5047L11.9167 16.0282C12.6584 14.7894 14.2441 14.3514 15.5228 15.0772C16.6354 15.6778 18.0804 15.2774 18.7325 14.2138C18.9371 13.8634 19.0522 13.4881 19.0266 13.1127C19.0011 12.6247 19.1417 12.1617 19.3847 11.7863C19.8578 11.0105 20.7146 10.51 21.6481 10.485H23.4511ZM22.5688 19.4692C20.5611 19.4692 18.9371 21.0458 18.9371 23.0103C18.9371 24.9748 20.5611 26.5389 22.5688 26.5389C24.5764 26.5389 26.1621 24.9748 26.1621 23.0103C26.1621 21.0458 24.5764 19.4692 22.5688 19.4692Z" fill="#EFF2F4"/>
</svg>
