<svg width="46" height="46" viewBox="0 0 46 46" fill="none" xmlns="http://www.w3.org/2000/svg">
<path d="M21.9191 10.1794C25.0255 10.1794 27.559 12.6695 27.559 15.7351V21.7288H19.9203C19.3729 21.7288 18.94 22.1542 18.94 22.6923C18.94 23.2178 19.3729 23.6558 19.9203 23.6558H27.559V29.6369C27.559 32.7025 25.0255 35.2051 21.8936 35.2051H15.6936C12.5745 35.2051 10.041 32.715 10.041 29.6494V15.7476C10.041 12.6695 12.5872 10.1794 15.7063 10.1794H21.9191ZM30.7375 18.3756C31.1129 17.9877 31.726 17.9877 32.1014 18.3631L35.7551 22.0043C35.9428 22.192 36.0429 22.4297 36.0429 22.6925C36.0429 22.9428 35.9428 23.193 35.7551 23.3682L32.1014 27.0094C31.9137 27.1971 31.6634 27.2972 31.4257 27.2972C31.1754 27.2972 30.9252 27.1971 30.7375 27.0094C30.3621 26.6341 30.3621 26.0209 30.7375 25.6455L32.7395 23.656H27.5592V21.729H32.7395L30.7375 19.7395C30.3621 19.3641 30.3621 18.751 30.7375 18.3756Z" fill="white"/>
</svg>
